<?xml version="1.0" encoding="UTF-8" standalone="no"?>
<!DOCTYPE svg PUBLIC "-//W3C//DTD SVG 1.1//EN"
 "http://www.w3.org/Graphics/SVG/1.1/DTD/svg11.dtd">
<!-- Generated by graphviz version 2.43.0 (0)
 -->
<!-- Title: src/CourseDetector.h Pages: 1 -->
<svg width="280pt" height="137pt"
 viewBox="0.00 0.00 279.50 137.00" xmlns="http://www.w3.org/2000/svg" xmlns:xlink="http://www.w3.org/1999/xlink">

<svg id="main" version="1.1" xmlns="http://www.w3.org/2000/svg" xmlns:xlink="http://www.w3.org/1999/xlink" xml:space="preserve" onload="init(evt)">
<style type="text/css"><![CDATA[
.node, .edge {opacity: 0.7;}
.node.selected, .edge.selected {opacity: 1;}
.edge:hover path { stroke: red; }
.edge:hover polygon { stroke: red; fill: red; }
]]></style>
<script type="application/ecmascript" xlink:href="svg.min.js"/>
<svg id="graph" class="graph">
<g id="graph0" class="graph" transform="scale(1 1) rotate(0) translate(4 133)">
<title>src/CourseDetector.h</title>
<!-- Node1 -->
<g id="Node000001" class="node">
<title>Node1</title>
<g id="a_Node000001"><a xlink:title=" ">
<polygon fill="#999999" stroke="#666666" points="194.5,-129 76.5,-129 76.5,-110 194.5,-110 194.5,-129"/>
<text text-anchor="middle" x="135.5" y="-117" font-family="Helvetica,sans-Serif" font-size="10.00">src/CourseDetector.h</text>
</a>
</g>
</g>
<!-- Node2 -->
<g id="Node000002" class="node">
<title>Node2</title>
<g id="a_Node000002"><a xlink:href="CourseDetector_8cpp.html" target="_top" xlink:title=" ">
<polygon fill="white" stroke="#666666" points="129,-74 0,-74 0,-55 129,-55 129,-74"/>
<text text-anchor="middle" x="64.5" y="-62" font-family="Helvetica,sans-Serif" font-size="10.00">src/CourseDetector.cpp</text>
</a>
</g>
</g>
<!-- Node1&#45;&gt;Node2 -->
<g id="edge1_Node000001_Node000002" class="edge">
<title>Node1&#45;&gt;Node2</title>
<g id="a_edge1_Node000001_Node000002"><a xlink:title=" ">
<path fill="none" stroke="#63b8ff" d="M115.91,-103.88C103.13,-94.34 86.89,-82.21 76.11,-74.17"/>
<polygon fill="#63b8ff" stroke="#63b8ff" points="113.99,-106.81 124.09,-109.98 118.17,-101.2 113.99,-106.81"/>
</a>
</g>
</g>
<!-- Node3 -->
<g id="Node000003" class="node">
<title>Node3</title>
<g id="a_Node000003"><a xlink:href="CourseManager_8h.html" target="_top" xlink:title=" ">
<polygon fill="white" stroke="#666666" points="266,-74 147,-74 147,-55 266,-55 266,-74"/>
<text text-anchor="middle" x="206.5" y="-62" font-family="Helvetica,sans-Serif" font-size="10.00">src/CourseManager.h</text>
</a>
</g>
</g>
<!-- Node1&#45;&gt;Node3 -->
<g id="edge2_Node000001_Node000003" class="edge">
<title>Node1&#45;&gt;Node3</title>
<g id="a_edge2_Node000001_Node000003"><a xlink:title=" ">
<path fill="none" stroke="#63b8ff" d="M155.09,-103.88C167.87,-94.34 184.11,-82.21 194.89,-74.17"/>
<polygon fill="#63b8ff" stroke="#63b8ff" points="152.83,-101.2 146.91,-109.98 157.01,-106.81 152.83,-101.2"/>
</a>
</g>
</g>
<!-- Node4 -->
<g id="Node000004" class="node">
<title>Node4</title>
<g id="a_Node000004"><a xlink:href="CourseManager_8cpp.html" target="_top" xlink:title=" ">
<polygon fill="white" stroke="#666666" points="271.5,-19 141.5,-19 141.5,0 271.5,0 271.5,-19"/>
<text text-anchor="middle" x="206.5" y="-7" font-family="Helvetica,sans-Serif" font-size="10.00">src/CourseManager.cpp</text>
</a>
</g>
</g>
<!-- Node3&#45;&gt;Node4 -->
<g id="edge3_Node000003_Node000004" class="edge">
<title>Node3&#45;&gt;Node4</title>
<g id="a_edge3_Node000003_Node000004"><a xlink:title=" ">
<path fill="none" stroke="#63b8ff" d="M206.5,-44.66C206.5,-35.93 206.5,-25.99 206.5,-19.09"/>
<polygon fill="#63b8ff" stroke="#63b8ff" points="203,-44.75 206.5,-54.75 210,-44.75 203,-44.75"/>
</a>
</g>
</g>
</g>
</svg>
</svg>

<style type='text/css'>
<![CDATA[
[data-mouse-over-selected='false'] { opacity: 0.7; }
[data-mouse-over-selected='true']  { opacity: 1.0; }
]]>
</style>
<script type="application/ecmascript"><![CDATA[
document.addEventListener('DOMContentLoaded', (event) => {
  highlightEdges();
  highlightAdjacentNodes();
});
]]></script>
</svg>
