<?xml version="1.0" encoding="UTF-8" standalone="no"?>
<!DOCTYPE svg PUBLIC "-//W3C//DTD SVG 1.1//EN"
 "http://www.w3.org/Graphics/SVG/1.1/DTD/svg11.dtd">
<!-- Generated by graphviz version 2.43.0 (0)
 -->
<!-- Title: src/CourseDetector.cpp Pages: 1 -->
<svg width="276pt" height="247pt"
 viewBox="0.00 0.00 276.00 247.00" xmlns="http://www.w3.org/2000/svg" xmlns:xlink="http://www.w3.org/1999/xlink">
<g id="graph0" class="graph" transform="scale(1 1) rotate(0) translate(4 243)">
<title>src/CourseDetector.cpp</title>
<!-- Node1 -->
<g id="Node000001" class="node">
<title>Node1</title>
<g id="a_Node000001"><a xlink:title=" ">
<polygon fill="#999999" stroke="#666666" points="196,-239 67,-239 67,-220 196,-220 196,-239"/>
<text text-anchor="middle" x="131.5" y="-227" font-family="Helvetica,sans-Serif" font-size="10.00">src/CourseDetector.cpp</text>
</a>
</g>
</g>
<!-- Node2 -->
<g id="Node000002" class="node">
<title>Node2</title>
<g id="a_Node000002"><a xlink:href="CourseDetector_8h.html" target="_top" xlink:title=" ">
<polygon fill="white" stroke="#666666" points="182,-184 81,-184 81,-165 182,-165 182,-184"/>
<text text-anchor="middle" x="131.5" y="-172" font-family="Helvetica,sans-Serif" font-size="10.00">CourseDetector.h</text>
</a>
</g>
</g>
<!-- Node1&#45;&gt;Node2 -->
<g id="edge1_Node000001_Node000002" class="edge">
<title>Node1&#45;&gt;Node2</title>
<g id="a_edge1_Node000001_Node000002"><a xlink:title=" ">
<path fill="none" stroke="#63b8ff" d="M131.5,-219.75C131.5,-212.8 131.5,-202.85 131.5,-194.13"/>
<polygon fill="#63b8ff" stroke="#63b8ff" points="135,-194.09 131.5,-184.09 128,-194.09 135,-194.09"/>
</a>
</g>
</g>
<!-- Node3 -->
<g id="Node000003" class="node">
<title>Node3</title>
<g id="a_Node000003"><a xlink:title=" ">
<polygon fill="#e0e0e0" stroke="#999999" points="63,-129 0,-129 0,-110 63,-110 63,-129"/>
<text text-anchor="middle" x="31.5" y="-117" font-family="Helvetica,sans-Serif" font-size="10.00">Arduino.h</text>
</a>
</g>
</g>
<!-- Node2&#45;&gt;Node3 -->
<g id="edge2_Node000002_Node000003" class="edge">
<title>Node2&#45;&gt;Node3</title>
<g id="a_edge2_Node000002_Node000003"><a xlink:title=" ">
<path fill="none" stroke="#63b8ff" d="M115.43,-164.98C99.64,-156.61 75.28,-143.7 56.87,-133.95"/>
<polygon fill="#63b8ff" stroke="#63b8ff" points="58.33,-130.76 47.86,-129.17 55.06,-136.95 58.33,-130.76"/>
</a>
</g>
</g>
<!-- Node4 -->
<g id="Node000004" class="node">
<title>Node4</title>
<g id="a_Node000004"><a xlink:href="DovesLapTimer_8h.html" target="_top" xlink:title=" ">
<polygon fill="white" stroke="#666666" points="182,-129 81,-129 81,-110 182,-110 182,-129"/>
<text text-anchor="middle" x="131.5" y="-117" font-family="Helvetica,sans-Serif" font-size="10.00">DovesLapTimer.h</text>
</a>
</g>
</g>
<!-- Node2&#45;&gt;Node4 -->
<g id="edge3_Node000002_Node000004" class="edge">
<title>Node2&#45;&gt;Node4</title>
<g id="a_edge3_Node000002_Node000004"><a xlink:title=" ">
<path fill="none" stroke="#63b8ff" d="M131.5,-164.75C131.5,-157.8 131.5,-147.85 131.5,-139.13"/>
<polygon fill="#63b8ff" stroke="#63b8ff" points="135,-139.09 131.5,-129.09 128,-139.09 135,-139.09"/>
</a>
</g>
</g>
<!-- Node6 -->
<g id="Node000006" class="node">
<title>Node6</title>
<g id="a_Node000006"><a xlink:href="GeoMath_8h.html" target="_top" xlink:title=" ">
<polygon fill="white" stroke="#666666" points="245.5,-74 175.5,-74 175.5,-55 245.5,-55 245.5,-74"/>
<text text-anchor="middle" x="210.5" y="-62" font-family="Helvetica,sans-Serif" font-size="10.00">GeoMath.h</text>
</a>
</g>
</g>
<!-- Node2&#45;&gt;Node6 -->
<g id="edge8_Node000002_Node000006" class="edge">
<title>Node2&#45;&gt;Node6</title>
<g id="a_edge8_Node000002_Node000006"><a xlink:title=" ">
<path fill="none" stroke="#63b8ff" d="M148.03,-164.86C161.3,-157.13 179.47,-144.62 190.5,-129 199.98,-115.58 205.1,-97.47 207.78,-84.03"/>
<polygon fill="#63b8ff" stroke="#63b8ff" points="211.25,-84.49 209.49,-74.04 204.35,-83.31 211.25,-84.49"/>
</a>
</g>
</g>
<!-- Node5 -->
<g id="Node000005" class="node">
<title>Node5</title>
<g id="a_Node000005"><a xlink:title=" ">
<polygon fill="#e0e0e0" stroke="#999999" points="157,-74 66,-74 66,-55 157,-55 157,-74"/>
<text text-anchor="middle" x="111.5" y="-62" font-family="Helvetica,sans-Serif" font-size="10.00">ArxTypeTraits.h</text>
</a>
</g>
</g>
<!-- Node4&#45;&gt;Node5 -->
<g id="edge4_Node000004_Node000005" class="edge">
<title>Node4&#45;&gt;Node5</title>
<g id="a_edge4_Node000004_Node000005"><a xlink:title=" ">
<path fill="none" stroke="#63b8ff" d="M128.2,-109.75C125.52,-102.65 121.65,-92.4 118.31,-83.56"/>
<polygon fill="#63b8ff" stroke="#63b8ff" points="121.55,-82.21 114.74,-74.09 115,-84.68 121.55,-82.21"/>
</a>
</g>
</g>
<!-- Node4&#45;&gt;Node6 -->
<g id="edge5_Node000004_Node000006" class="edge">
<title>Node4&#45;&gt;Node6</title>
<g id="a_edge5_Node000004_Node000006"><a xlink:title=" ">
<path fill="none" stroke="#63b8ff" d="M144.19,-109.98C156.33,-101.84 174.86,-89.41 189.25,-79.76"/>
<polygon fill="#63b8ff" stroke="#63b8ff" points="191.22,-82.65 197.58,-74.17 187.32,-76.84 191.22,-82.65"/>
</a>
</g>
</g>
<!-- Node7 -->
<g id="Node000007" class="node">
<title>Node7</title>
<g id="a_Node000007"><a xlink:title=" ">
<polygon fill="#e0e0e0" stroke="#999999" points="203,-19 152,-19 152,0 203,0 203,-19"/>
<text text-anchor="middle" x="177.5" y="-7" font-family="Helvetica,sans-Serif" font-size="10.00">math.h</text>
</a>
</g>
</g>
<!-- Node6&#45;&gt;Node7 -->
<g id="edge6_Node000006_Node000007" class="edge">
<title>Node6&#45;&gt;Node7</title>
<g id="a_edge6_Node000006_Node000007"><a xlink:title=" ">
<path fill="none" stroke="#63b8ff" d="M205.05,-54.75C200.49,-47.42 193.83,-36.73 188.21,-27.7"/>
<polygon fill="#63b8ff" stroke="#63b8ff" points="191.1,-25.73 182.85,-19.09 185.16,-29.43 191.1,-25.73"/>
</a>
</g>
</g>
<!-- Node8 -->
<g id="Node000008" class="node">
<title>Node8</title>
<g id="a_Node000008"><a xlink:title=" ">
<polygon fill="#e0e0e0" stroke="#999999" points="268,-19 221,-19 221,0 268,0 268,-19"/>
<text text-anchor="middle" x="244.5" y="-7" font-family="Helvetica,sans-Serif" font-size="10.00">float.h</text>
</a>
</g>
</g>
<!-- Node6&#45;&gt;Node8 -->
<g id="edge7_Node000006_Node000008" class="edge">
<title>Node6&#45;&gt;Node8</title>
<g id="a_edge7_Node000006_Node000008"><a xlink:title=" ">
<path fill="none" stroke="#63b8ff" d="M216.11,-54.75C220.82,-47.42 227.67,-36.73 233.47,-27.7"/>
<polygon fill="#63b8ff" stroke="#63b8ff" points="236.54,-29.4 238.99,-19.09 230.64,-25.62 236.54,-29.4"/>
</a>
</g>
</g>
</g>
</svg>
