<?xml version="1.0" encoding="UTF-8" standalone="no"?>
<!DOCTYPE svg PUBLIC "-//W3C//DTD SVG 1.1//EN"
 "http://www.w3.org/Graphics/SVG/1.1/DTD/svg11.dtd">
<!-- Generated by graphviz version 2.43.0 (0)
 -->
<!-- Title: src/CourseManager.h Pages: 1 -->
<svg width="279pt" height="247pt"
 viewBox="0.00 0.00 279.40 247.00" xmlns="http://www.w3.org/2000/svg" xmlns:xlink="http://www.w3.org/1999/xlink">

<svg id="main" version="1.1" xmlns="http://www.w3.org/2000/svg" xmlns:xlink="http://www.w3.org/1999/xlink" xml:space="preserve" onload="init(evt)">
<style type="text/css"><![CDATA[
.node, .edge {opacity: 0.7;}
.node.selected, .edge.selected {opacity: 1;}
.edge:hover path { stroke: red; }
.edge:hover polygon { stroke: red; fill: red; }
]]></style>
<script type="application/ecmascript" xlink:href="svg.min.js"/>
<svg id="graph" class="graph">
<g id="graph0" class="graph" transform="scale(1 1) rotate(0) translate(4 243)">
<title>src/CourseManager.h</title>
<!-- Node1 -->
<g id="Node000001" class="node">
<title>Node1</title>
<g id="a_Node000001"><a xlink:title=" ">
<polygon fill="#999999" stroke="#666666" points="186.4,-239 67.4,-239 67.4,-220 186.4,-220 186.4,-239"/>
<text text-anchor="middle" x="126.9" y="-227" font-family="Helvetica,sans-Serif" font-size="10.00">src/CourseManager.h</text>
</a>
</g>
</g>
<!-- Node2 -->
<g id="Node000002" class="node">
<title>Node2</title>
<g id="a_Node000002"><a xlink:title=" ">
<polygon fill="#e0e0e0" stroke="#999999" points="70.4,-129 7.4,-129 7.4,-110 70.4,-110 70.4,-129"/>
<text text-anchor="middle" x="38.9" y="-117" font-family="Helvetica,sans-Serif" font-size="10.00">Arduino.h</text>
</a>
</g>
</g>
<!-- Node1&#45;&gt;Node2 -->
<g id="edge1_Node000001_Node000002" class="edge">
<title>Node1&#45;&gt;Node2</title>
<g id="a_edge1_Node000001_Node000002"><a xlink:title=" ">
<path fill="none" stroke="#63b8ff" d="M67.15,-221.7C43.43,-215.74 18.38,-204.63 3.9,-184 -6.98,-168.49 7.02,-149.28 20.41,-136.07"/>
<polygon fill="#63b8ff" stroke="#63b8ff" points="23.04,-138.41 28.04,-129.06 18.31,-133.25 23.04,-138.41"/>
</a>
</g>
</g>
<!-- Node3 -->
<g id="Node000003" class="node">
<title>Node3</title>
<g id="a_Node000003"><a xlink:href="DovesLapTimer_8h.html" target="_top" xlink:title=" ">
<polygon fill="white" stroke="#666666" points="266.4,-129 165.4,-129 165.4,-110 266.4,-110 266.4,-129"/>
<text text-anchor="middle" x="215.9" y="-117" font-family="Helvetica,sans-Serif" font-size="10.00">DovesLapTimer.h</text>
</a>
</g>
</g>
<!-- Node1&#45;&gt;Node3 -->
<g id="edge2_Node000001_Node000003" class="edge">
<title>Node1&#45;&gt;Node3</title>
<g id="a_edge2_Node000001_Node000003"><a xlink:title=" ">
<path fill="none" stroke="#63b8ff" d="M186.69,-223.52C213.01,-218.01 241.6,-206.75 257.9,-184 269.63,-167.62 252.5,-148.23 236.72,-135.23"/>
<polygon fill="#63b8ff" stroke="#63b8ff" points="238.8,-132.41 228.75,-129.06 234.52,-137.95 238.8,-132.41"/>
</a>
</g>
</g>
<!-- Node8 -->
<g id="Node000008" class="node">
<title>Node8</title>
<g id="a_Node000008"><a xlink:href="WaypointLapTimer_8h.html" target="_top" xlink:title=" ">
<polygon fill="white" stroke="#666666" points="248.9,-184 132.9,-184 132.9,-165 248.9,-165 248.9,-184"/>
<text text-anchor="middle" x="190.9" y="-172" font-family="Helvetica,sans-Serif" font-size="10.00">WaypointLapTimer.h</text>
</a>
</g>
</g>
<!-- Node1&#45;&gt;Node8 -->
<g id="edge7_Node000001_Node000008" class="edge">
<title>Node1&#45;&gt;Node8</title>
<g id="a_edge7_Node000001_Node000008"><a xlink:title=" ">
<path fill="none" stroke="#63b8ff" d="M137.18,-219.98C146.74,-212.07 161.18,-200.11 172.68,-190.58"/>
<polygon fill="#63b8ff" stroke="#63b8ff" points="174.96,-193.24 180.43,-184.17 170.5,-187.85 174.96,-193.24"/>
</a>
</g>
</g>
<!-- Node9 -->
<g id="Node000009" class="node">
<title>Node9</title>
<g id="a_Node000009"><a xlink:href="CourseDetector_8h.html" target="_top" xlink:title=" ">
<polygon fill="white" stroke="#666666" points="114.4,-184 13.4,-184 13.4,-165 114.4,-165 114.4,-184"/>
<text text-anchor="middle" x="63.9" y="-172" font-family="Helvetica,sans-Serif" font-size="10.00">CourseDetector.h</text>
</a>
</g>
</g>
<!-- Node1&#45;&gt;Node9 -->
<g id="edge11_Node000001_Node000009" class="edge">
<title>Node1&#45;&gt;Node9</title>
<g id="a_edge11_Node000001_Node000009"><a xlink:title=" ">
<path fill="none" stroke="#63b8ff" d="M116.78,-219.98C107.47,-212.15 93.43,-200.34 82.16,-190.86"/>
<polygon fill="#63b8ff" stroke="#63b8ff" points="84.11,-187.93 74.21,-184.17 79.61,-193.29 84.11,-187.93"/>
</a>
</g>
</g>
<!-- Node4 -->
<g id="Node000004" class="node">
<title>Node4</title>
<g id="a_Node000004"><a xlink:title=" ">
<polygon fill="#e0e0e0" stroke="#999999" points="271.4,-74 180.4,-74 180.4,-55 271.4,-55 271.4,-74"/>
<text text-anchor="middle" x="225.9" y="-62" font-family="Helvetica,sans-Serif" font-size="10.00">ArxTypeTraits.h</text>
</a>
</g>
</g>
<!-- Node3&#45;&gt;Node4 -->
<g id="edge3_Node000003_Node000004" class="edge">
<title>Node3&#45;&gt;Node4</title>
<g id="a_edge3_Node000003_Node000004"><a xlink:title=" ">
<path fill="none" stroke="#63b8ff" d="M217.55,-109.75C218.86,-102.8 220.74,-92.85 222.38,-84.13"/>
<polygon fill="#63b8ff" stroke="#63b8ff" points="225.87,-84.56 224.28,-74.09 218.99,-83.27 225.87,-84.56"/>
</a>
</g>
</g>
<!-- Node5 -->
<g id="Node000005" class="node">
<title>Node5</title>
<g id="a_Node000005"><a xlink:href="GeoMath_8h.html" target="_top" xlink:title=" ">
<polygon fill="white" stroke="#666666" points="161.9,-74 91.9,-74 91.9,-55 161.9,-55 161.9,-74"/>
<text text-anchor="middle" x="126.9" y="-62" font-family="Helvetica,sans-Serif" font-size="10.00">GeoMath.h</text>
</a>
</g>
</g>
<!-- Node3&#45;&gt;Node5 -->
<g id="edge4_Node000003_Node000005" class="edge">
<title>Node3&#45;&gt;Node5</title>
<g id="a_edge4_Node000003_Node000005"><a xlink:title=" ">
<path fill="none" stroke="#63b8ff" d="M201.6,-109.98C187.8,-101.77 166.66,-89.18 150.39,-79.49"/>
<polygon fill="#63b8ff" stroke="#63b8ff" points="151.84,-76.28 141.46,-74.17 148.26,-82.29 151.84,-76.28"/>
</a>
</g>
</g>
<!-- Node6 -->
<g id="Node000006" class="node">
<title>Node6</title>
<g id="a_Node000006"><a xlink:title=" ">
<polygon fill="#e0e0e0" stroke="#999999" points="119.4,-19 68.4,-19 68.4,0 119.4,0 119.4,-19"/>
<text text-anchor="middle" x="93.9" y="-7" font-family="Helvetica,sans-Serif" font-size="10.00">math.h</text>
</a>
</g>
</g>
<!-- Node5&#45;&gt;Node6 -->
<g id="edge5_Node000005_Node000006" class="edge">
<title>Node5&#45;&gt;Node6</title>
<g id="a_edge5_Node000005_Node000006"><a xlink:title=" ">
<path fill="none" stroke="#63b8ff" d="M121.45,-54.75C116.89,-47.42 110.23,-36.73 104.61,-27.7"/>
<polygon fill="#63b8ff" stroke="#63b8ff" points="107.51,-25.73 99.25,-19.09 101.56,-29.43 107.51,-25.73"/>
</a>
</g>
</g>
<!-- Node7 -->
<g id="Node000007" class="node">
<title>Node7</title>
<g id="a_Node000007"><a xlink:title=" ">
<polygon fill="#e0e0e0" stroke="#999999" points="184.4,-19 137.4,-19 137.4,0 184.4,0 184.4,-19"/>
<text text-anchor="middle" x="160.9" y="-7" font-family="Helvetica,sans-Serif" font-size="10.00">float.h</text>
</a>
</g>
</g>
<!-- Node5&#45;&gt;Node7 -->
<g id="edge6_Node000005_Node000007" class="edge">
<title>Node5&#45;&gt;Node7</title>
<g id="a_edge6_Node000005_Node000007"><a xlink:title=" ">
<path fill="none" stroke="#63b8ff" d="M132.51,-54.75C137.22,-47.42 144.07,-36.73 149.87,-27.7"/>
<polygon fill="#63b8ff" stroke="#63b8ff" points="152.94,-29.4 155.39,-19.09 147.05,-25.62 152.94,-29.4"/>
</a>
</g>
</g>
<!-- Node8&#45;&gt;Node2 -->
<g id="edge8_Node000008_Node000002" class="edge">
<title>Node8&#45;&gt;Node2</title>
<g id="a_edge8_Node000008_Node000002"><a xlink:title=" ">
<path fill="none" stroke="#63b8ff" d="M166.48,-164.98C141.18,-156.16 101.45,-142.31 73.04,-132.41"/>
<polygon fill="#63b8ff" stroke="#63b8ff" points="74.11,-129.07 63.51,-129.08 71.8,-135.68 74.11,-129.07"/>
</a>
</g>
</g>
<!-- Node8&#45;&gt;Node3 -->
<g id="edge9_Node000008_Node000003" class="edge">
<title>Node8&#45;&gt;Node3</title>
<g id="a_edge9_Node000008_Node000003"><a xlink:title=" ">
<path fill="none" stroke="#63b8ff" d="M195.03,-164.75C198.41,-157.57 203.32,-147.18 207.52,-138.27"/>
<polygon fill="#63b8ff" stroke="#63b8ff" points="210.75,-139.63 211.85,-129.09 204.42,-136.64 210.75,-139.63"/>
</a>
</g>
</g>
<!-- Node8&#45;&gt;Node5 -->
<g id="edge10_Node000008_Node000005" class="edge">
<title>Node8&#45;&gt;Node5</title>
<g id="a_edge10_Node000008_Node000005"><a xlink:title=" ">
<path fill="none" stroke="#63b8ff" d="M183.28,-164.7C175.97,-156 164.89,-142.12 156.9,-129 147.89,-114.21 139.65,-96.28 134.09,-83.26"/>
<polygon fill="#63b8ff" stroke="#63b8ff" points="137.32,-81.9 130.25,-74.01 130.85,-84.59 137.32,-81.9"/>
</a>
</g>
</g>
<!-- Node9&#45;&gt;Node2 -->
<g id="edge12_Node000009_Node000002" class="edge">
<title>Node9&#45;&gt;Node2</title>
<g id="a_edge12_Node000009_Node000002"><a xlink:title=" ">
<path fill="none" stroke="#63b8ff" d="M59.77,-164.75C56.39,-157.57 51.48,-147.18 47.28,-138.27"/>
<polygon fill="#63b8ff" stroke="#63b8ff" points="50.38,-136.64 42.95,-129.09 44.05,-139.63 50.38,-136.64"/>
</a>
</g>
</g>
<!-- Node9&#45;&gt;Node3 -->
<g id="edge13_Node000009_Node000003" class="edge">
<title>Node9&#45;&gt;Node3</title>
<g id="a_edge13_Node000009_Node000003"><a xlink:title=" ">
<path fill="none" stroke="#63b8ff" d="M88.32,-164.98C113.62,-156.16 153.36,-142.31 181.76,-132.41"/>
<polygon fill="#63b8ff" stroke="#63b8ff" points="183,-135.68 191.29,-129.08 180.69,-129.07 183,-135.68"/>
</a>
</g>
</g>
<!-- Node9&#45;&gt;Node5 -->
<g id="edge14_Node000009_Node000005" class="edge">
<title>Node9&#45;&gt;Node5</title>
<g id="a_edge14_Node000009_Node000005"><a xlink:title=" ">
<path fill="none" stroke="#63b8ff" d="M69.06,-164.66C79.44,-146.85 103.06,-106.37 116.69,-83.01"/>
<polygon fill="#63b8ff" stroke="#63b8ff" points="119.83,-84.56 121.85,-74.16 113.79,-81.03 119.83,-84.56"/>
</a>
</g>
</g>
</g>
</svg>
</svg>

<style type='text/css'>
<![CDATA[
[data-mouse-over-selected='false'] { opacity: 0.7; }
[data-mouse-over-selected='true']  { opacity: 1.0; }
]]>
</style>
<script type="application/ecmascript"><![CDATA[
document.addEventListener('DOMContentLoaded', (event) => {
  highlightEdges();
  highlightAdjacentNodes();
});
]]></script>
</svg>
