<?xml version="1.0" encoding="UTF-8" standalone="no"?>
<!DOCTYPE svg PUBLIC "-//W3C//DTD SVG 1.1//EN"
 "http://www.w3.org/Graphics/SVG/1.1/DTD/svg11.dtd">
<!-- Generated by graphviz version 2.43.0 (0)
 -->
<!-- Title: src/DovesLapTimer.h Pages: 1 -->
<svg width="908pt" height="214pt"
 viewBox="0.00 0.00 908.00 214.00" xmlns="http://www.w3.org/2000/svg" xmlns:xlink="http://www.w3.org/1999/xlink">
<g id="graph0" class="graph" transform="scale(1 1) rotate(0) translate(4 210)">
<title>src/DovesLapTimer.h</title>
<!-- Node1 -->
<g id="Node000001" class="node">
<title>Node1</title>
<g id="a_Node000001"><a xlink:title=" ">
<polygon fill="#999999" stroke="#666666" points="557,-206 438,-206 438,-187 557,-187 557,-206"/>
<text text-anchor="middle" x="497.5" y="-194" font-family="Helvetica,sans-Serif" font-size="10.00">src/DovesLapTimer.h</text>
</a>
</g>
</g>
<!-- Node2 -->
<g id="Node000002" class="node">
<title>Node2</title>
<g id="a_Node000002"><a xlink:href="basic__oled__example_8ino.html" target="_top" xlink:title=" ">
<polygon fill="white" stroke="#666666" points="119,-151 0,-151 0,-110 119,-110 119,-151"/>
<text text-anchor="start" x="8" y="-139" font-family="Helvetica,sans-Serif" font-size="10.00">examples/basic_oled</text>
<text text-anchor="start" x="8" y="-128" font-family="Helvetica,sans-Serif" font-size="10.00">_example/basic_oled</text>
<text text-anchor="middle" x="59.5" y="-117" font-family="Helvetica,sans-Serif" font-size="10.00">_example.ino</text>
</a>
</g>
</g>
<!-- Node1&#45;&gt;Node2 -->
<g id="edge1_Node000001_Node000002" class="edge">
<title>Node1&#45;&gt;Node2</title>
<g id="a_edge1_Node000001_Node000002"><a xlink:title=" ">
<path fill="none" stroke="#63b8ff" d="M427.52,-190.43C352.72,-184.24 230.92,-171.91 127.5,-151 124.73,-150.44 121.91,-149.82 119.07,-149.17"/>
<polygon fill="#63b8ff" stroke="#63b8ff" points="427.51,-193.94 437.76,-191.27 428.08,-186.96 427.51,-193.94"/>
</a>
</g>
</g>
<!-- Node3 -->
<g id="Node000003" class="node">
<title>Node3</title>
<g id="a_Node000003"><a xlink:href="real__track__data__debug_8ino.html" target="_top" xlink:title=" ">
<polygon fill="white" stroke="#666666" points="268,-151 137,-151 137,-110 268,-110 268,-151"/>
<text text-anchor="start" x="145" y="-139" font-family="Helvetica,sans-Serif" font-size="10.00">examples/real_track</text>
<text text-anchor="start" x="145" y="-128" font-family="Helvetica,sans-Serif" font-size="10.00">_data_debug/real_track</text>
<text text-anchor="middle" x="202.5" y="-117" font-family="Helvetica,sans-Serif" font-size="10.00">_data_debug.ino</text>
</a>
</g>
</g>
<!-- Node1&#45;&gt;Node3 -->
<g id="edge2_Node000001_Node000003" class="edge">
<title>Node1&#45;&gt;Node3</title>
<g id="a_edge2_Node000001_Node000003"><a xlink:title=" ">
<path fill="none" stroke="#63b8ff" d="M441.36,-185.02C396.8,-176.5 332.98,-163.81 277.5,-151 274.49,-150.3 271.41,-149.58 268.3,-148.83"/>
<polygon fill="#63b8ff" stroke="#63b8ff" points="440.93,-188.51 451.41,-186.94 442.25,-181.63 440.93,-188.51"/>
</a>
</g>
</g>
<!-- Node4 -->
<g id="Node000004" class="node">
<title>Node4</title>
<g id="a_Node000004"><a xlink:href="sector__timing__example_8ino.html" target="_top" xlink:title=" ">
<polygon fill="white" stroke="#666666" points="420.5,-151 286.5,-151 286.5,-110 420.5,-110 420.5,-151"/>
<text text-anchor="start" x="294.5" y="-139" font-family="Helvetica,sans-Serif" font-size="10.00">examples/sector_timing</text>
<text text-anchor="start" x="294.5" y="-128" font-family="Helvetica,sans-Serif" font-size="10.00">_example/sector_timing</text>
<text text-anchor="middle" x="353.5" y="-117" font-family="Helvetica,sans-Serif" font-size="10.00">_example.ino</text>
</a>
</g>
</g>
<!-- Node1&#45;&gt;Node4 -->
<g id="edge3_Node000001_Node000004" class="edge">
<title>Node1&#45;&gt;Node4</title>
<g id="a_edge3_Node000001_Node000004"><a xlink:title=" ">
<path fill="none" stroke="#63b8ff" d="M468.7,-182.7C448.3,-173.63 420.55,-161.3 397.4,-151.01"/>
<polygon fill="#63b8ff" stroke="#63b8ff" points="467.52,-186.01 478.08,-186.87 470.36,-179.61 467.52,-186.01"/>
</a>
</g>
</g>
<!-- Node5 -->
<g id="Node000005" class="node">
<title>Node5</title>
<g id="a_Node000005"><a xlink:href="CourseDetector_8h.html" target="_top" xlink:title=" ">
<polygon fill="white" stroke="#666666" points="556.5,-140 438.5,-140 438.5,-121 556.5,-121 556.5,-140"/>
<text text-anchor="middle" x="497.5" y="-128" font-family="Helvetica,sans-Serif" font-size="10.00">src/CourseDetector.h</text>
</a>
</g>
</g>
<!-- Node1&#45;&gt;Node5 -->
<g id="edge4_Node000001_Node000005" class="edge">
<title>Node1&#45;&gt;Node5</title>
<g id="a_edge4_Node000001_Node000005"><a xlink:title=" ">
<path fill="none" stroke="#63b8ff" d="M497.5,-176.58C497.5,-164.63 497.5,-149.72 497.5,-140.41"/>
<polygon fill="#63b8ff" stroke="#63b8ff" points="494,-176.87 497.5,-186.87 501,-176.87 494,-176.87"/>
</a>
</g>
</g>
<!-- Node7 -->
<g id="Node000007" class="node">
<title>Node7</title>
<g id="a_Node000007"><a xlink:href="CourseManager_8h.html" target="_top" xlink:title=" ">
<polygon fill="white" stroke="#666666" points="672,-74 553,-74 553,-55 672,-55 672,-74"/>
<text text-anchor="middle" x="612.5" y="-62" font-family="Helvetica,sans-Serif" font-size="10.00">src/CourseManager.h</text>
</a>
</g>
</g>
<!-- Node1&#45;&gt;Node7 -->
<g id="edge8_Node000001_Node000007" class="edge">
<title>Node1&#45;&gt;Node7</title>
<g id="a_edge8_Node000001_Node000007"><a xlink:title=" ">
<path fill="none" stroke="#63b8ff" d="M524.32,-182.04C537.85,-174.31 553.82,-163.62 565.5,-151 587.6,-127.14 602.99,-90.97 609.3,-74.39"/>
<polygon fill="#63b8ff" stroke="#63b8ff" points="522.51,-179.04 515.43,-186.92 525.88,-185.18 522.51,-179.04"/>
</a>
</g>
</g>
<!-- Node9 -->
<g id="Node000009" class="node">
<title>Node9</title>
<g id="a_Node000009"><a xlink:href="DovesLapTimer_8cpp.html" target="_top" xlink:title=" ">
<polygon fill="white" stroke="#666666" points="742.5,-140 612.5,-140 612.5,-121 742.5,-121 742.5,-140"/>
<text text-anchor="middle" x="677.5" y="-128" font-family="Helvetica,sans-Serif" font-size="10.00">src/DovesLapTimer.cpp</text>
</a>
</g>
</g>
<!-- Node1&#45;&gt;Node9 -->
<g id="edge9_Node000001_Node000009" class="edge">
<title>Node1&#45;&gt;Node9</title>
<g id="a_edge9_Node000001_Node000009"><a xlink:title=" ">
<path fill="none" stroke="#63b8ff" d="M531.25,-183.5C566.79,-170.86 621.88,-151.28 653.32,-140.1"/>
<polygon fill="#63b8ff" stroke="#63b8ff" points="530.03,-180.22 521.78,-186.87 532.37,-186.82 530.03,-180.22"/>
</a>
</g>
</g>
<!-- Node10 -->
<g id="Node000010" class="node">
<title>Node10</title>
<g id="a_Node000010"><a xlink:href="WaypointLapTimer_8h.html" target="_top" xlink:title=" ">
<polygon fill="white" stroke="#666666" points="894.5,-140 760.5,-140 760.5,-121 894.5,-121 894.5,-140"/>
<text text-anchor="middle" x="827.5" y="-128" font-family="Helvetica,sans-Serif" font-size="10.00">src/WaypointLapTimer.h</text>
</a>
</g>
</g>
<!-- Node1&#45;&gt;Node10 -->
<g id="edge10_Node000001_Node000010" class="edge">
<title>Node1&#45;&gt;Node10</title>
<g id="a_edge10_Node000001_Node000010"><a xlink:title=" ">
<path fill="none" stroke="#63b8ff" d="M563.47,-185.38C614.9,-177.15 688.01,-164.69 751.5,-151 766.41,-147.79 782.83,-143.65 796.57,-140.02"/>
<polygon fill="#63b8ff" stroke="#63b8ff" points="562.81,-181.95 553.49,-186.97 563.91,-188.86 562.81,-181.95"/>
</a>
</g>
</g>
<!-- Node6 -->
<g id="Node000006" class="node">
<title>Node6</title>
<g id="a_Node000006"><a xlink:href="CourseDetector_8cpp.html" target="_top" xlink:title=" ">
<polygon fill="white" stroke="#666666" points="535,-74 406,-74 406,-55 535,-55 535,-74"/>
<text text-anchor="middle" x="470.5" y="-62" font-family="Helvetica,sans-Serif" font-size="10.00">src/CourseDetector.cpp</text>
</a>
</g>
</g>
<!-- Node5&#45;&gt;Node6 -->
<g id="edge5_Node000005_Node000006" class="edge">
<title>Node5&#45;&gt;Node6</title>
<g id="a_edge5_Node000005_Node000006"><a xlink:title=" ">
<path fill="none" stroke="#63b8ff" d="M489.83,-111.32C484.73,-99.24 478.27,-83.91 474.26,-74.41"/>
<polygon fill="#63b8ff" stroke="#63b8ff" points="486.75,-113.02 493.86,-120.87 493.2,-110.29 486.75,-113.02"/>
</a>
</g>
</g>
<!-- Node5&#45;&gt;Node7 -->
<g id="edge6_Node000005_Node000007" class="edge">
<title>Node5&#45;&gt;Node7</title>
<g id="a_edge6_Node000005_Node000007"><a xlink:title=" ">
<path fill="none" stroke="#63b8ff" d="M522.01,-115.86C544.65,-103.26 577.61,-84.92 596.87,-74.2"/>
<polygon fill="#63b8ff" stroke="#63b8ff" points="520.05,-112.95 513.01,-120.87 523.45,-119.06 520.05,-112.95"/>
</a>
</g>
</g>
<!-- Node8 -->
<g id="Node000008" class="node">
<title>Node8</title>
<g id="a_Node000008"><a xlink:href="CourseManager_8cpp.html" target="_top" xlink:title=" ">
<polygon fill="white" stroke="#666666" points="677.5,-19 547.5,-19 547.5,0 677.5,0 677.5,-19"/>
<text text-anchor="middle" x="612.5" y="-7" font-family="Helvetica,sans-Serif" font-size="10.00">src/CourseManager.cpp</text>
</a>
</g>
</g>
<!-- Node7&#45;&gt;Node8 -->
<g id="edge7_Node000007_Node000008" class="edge">
<title>Node7&#45;&gt;Node8</title>
<g id="a_edge7_Node000007_Node000008"><a xlink:title=" ">
<path fill="none" stroke="#63b8ff" d="M612.5,-44.66C612.5,-35.93 612.5,-25.99 612.5,-19.09"/>
<polygon fill="#63b8ff" stroke="#63b8ff" points="609,-44.75 612.5,-54.75 616,-44.75 609,-44.75"/>
</a>
</g>
</g>
<!-- Node10&#45;&gt;Node7 -->
<g id="edge11_Node000010_Node000007" class="edge">
<title>Node10&#45;&gt;Node7</title>
<g id="a_edge11_Node000010_Node000007"><a xlink:title=" ">
<path fill="none" stroke="#63b8ff" d="M788.81,-117.98C746.42,-105.37 679.41,-85.42 641.38,-74.1"/>
<polygon fill="#63b8ff" stroke="#63b8ff" points="787.92,-121.37 798.5,-120.87 789.92,-114.66 787.92,-121.37"/>
</a>
</g>
</g>
<!-- Node11 -->
<g id="Node000011" class="node">
<title>Node11</title>
<g id="a_Node000011"><a xlink:href="WaypointLapTimer_8cpp.html" target="_top" xlink:title=" ">
<polygon fill="white" stroke="#666666" points="900,-74 755,-74 755,-55 900,-55 900,-74"/>
<text text-anchor="middle" x="827.5" y="-62" font-family="Helvetica,sans-Serif" font-size="10.00">src/WaypointLapTimer.cpp</text>
</a>
</g>
</g>
<!-- Node10&#45;&gt;Node11 -->
<g id="edge12_Node000010_Node000011" class="edge">
<title>Node10&#45;&gt;Node11</title>
<g id="a_edge12_Node000010_Node000011"><a xlink:title=" ">
<path fill="none" stroke="#63b8ff" d="M827.5,-110.58C827.5,-98.63 827.5,-83.72 827.5,-74.41"/>
<polygon fill="#63b8ff" stroke="#63b8ff" points="824,-110.87 827.5,-120.87 831,-110.87 824,-110.87"/>
</a>
</g>
</g>
</g>
</svg>
