<?xml version="1.0" encoding="UTF-8" standalone="no"?>
<!DOCTYPE svg PUBLIC "-//W3C//DTD SVG 1.1//EN"
 "http://www.w3.org/Graphics/SVG/1.1/DTD/svg11.dtd">
<!-- Generated by graphviz version 2.43.0 (0)
 -->
<!-- Title: src/DovesLapTimer.cpp Pages: 1 -->
<svg width="210pt" height="192pt"
 viewBox="0.00 0.00 210.00 192.00" xmlns="http://www.w3.org/2000/svg" xmlns:xlink="http://www.w3.org/1999/xlink">
<g id="graph0" class="graph" transform="scale(1 1) rotate(0) translate(4 188)">
<title>src/DovesLapTimer.cpp</title>
<!-- Node1 -->
<g id="Node000001" class="node">
<title>Node1</title>
<g id="a_Node000001"><a xlink:title=" ">
<polygon fill="#999999" stroke="#666666" points="169.5,-184 39.5,-184 39.5,-165 169.5,-165 169.5,-184"/>
<text text-anchor="middle" x="104.5" y="-172" font-family="Helvetica,sans-Serif" font-size="10.00">src/DovesLapTimer.cpp</text>
</a>
</g>
</g>
<!-- Node2 -->
<g id="Node000002" class="node">
<title>Node2</title>
<g id="a_Node000002"><a xlink:href="DovesLapTimer_8h.html" target="_top" xlink:title=" ">
<polygon fill="white" stroke="#666666" points="116,-129 15,-129 15,-110 116,-110 116,-129"/>
<text text-anchor="middle" x="65.5" y="-117" font-family="Helvetica,sans-Serif" font-size="10.00">DovesLapTimer.h</text>
</a>
</g>
</g>
<!-- Node1&#45;&gt;Node2 -->
<g id="edge1_Node000001_Node000002" class="edge">
<title>Node1&#45;&gt;Node2</title>
<g id="a_edge1_Node000001_Node000002"><a xlink:title=" ">
<path fill="none" stroke="#63b8ff" d="M98.06,-164.75C92.61,-157.34 84.64,-146.5 77.94,-137.41"/>
<polygon fill="#63b8ff" stroke="#63b8ff" points="80.57,-135.07 71.82,-129.09 74.93,-139.22 80.57,-135.07"/>
</a>
</g>
</g>
<!-- Node4 -->
<g id="Node000004" class="node">
<title>Node4</title>
<g id="a_Node000004"><a xlink:href="GeoMath_8h.html" target="_top" xlink:title=" ">
<polygon fill="white" stroke="#666666" points="179.5,-74 109.5,-74 109.5,-55 179.5,-55 179.5,-74"/>
<text text-anchor="middle" x="144.5" y="-62" font-family="Helvetica,sans-Serif" font-size="10.00">GeoMath.h</text>
</a>
</g>
</g>
<!-- Node1&#45;&gt;Node4 -->
<g id="edge6_Node000001_Node000004" class="edge">
<title>Node1&#45;&gt;Node4</title>
<g id="a_edge6_Node000001_Node000004"><a xlink:title=" ">
<path fill="none" stroke="#63b8ff" d="M108.79,-164.76C113.07,-155.88 119.68,-141.67 124.5,-129 130.16,-114.13 135.52,-96.89 139.26,-84.13"/>
<polygon fill="#63b8ff" stroke="#63b8ff" points="142.7,-84.82 142.1,-74.24 135.98,-82.88 142.7,-84.82"/>
</a>
</g>
</g>
<!-- Node3 -->
<g id="Node000003" class="node">
<title>Node3</title>
<g id="a_Node000003"><a xlink:title=" ">
<polygon fill="#e0e0e0" stroke="#999999" points="91,-74 0,-74 0,-55 91,-55 91,-74"/>
<text text-anchor="middle" x="45.5" y="-62" font-family="Helvetica,sans-Serif" font-size="10.00">ArxTypeTraits.h</text>
</a>
</g>
</g>
<!-- Node2&#45;&gt;Node3 -->
<g id="edge2_Node000002_Node000003" class="edge">
<title>Node2&#45;&gt;Node3</title>
<g id="a_edge2_Node000002_Node000003"><a xlink:title=" ">
<path fill="none" stroke="#63b8ff" d="M62.2,-109.75C59.52,-102.65 55.65,-92.4 52.31,-83.56"/>
<polygon fill="#63b8ff" stroke="#63b8ff" points="55.55,-82.21 48.74,-74.09 49,-84.68 55.55,-82.21"/>
</a>
</g>
</g>
<!-- Node2&#45;&gt;Node4 -->
<g id="edge3_Node000002_Node000004" class="edge">
<title>Node2&#45;&gt;Node4</title>
<g id="a_edge3_Node000002_Node000004"><a xlink:title=" ">
<path fill="none" stroke="#63b8ff" d="M78.19,-109.98C90.33,-101.84 108.86,-89.41 123.25,-79.76"/>
<polygon fill="#63b8ff" stroke="#63b8ff" points="125.22,-82.65 131.58,-74.17 121.32,-76.84 125.22,-82.65"/>
</a>
</g>
</g>
<!-- Node5 -->
<g id="Node000005" class="node">
<title>Node5</title>
<g id="a_Node000005"><a xlink:title=" ">
<polygon fill="#e0e0e0" stroke="#999999" points="137,-19 86,-19 86,0 137,0 137,-19"/>
<text text-anchor="middle" x="111.5" y="-7" font-family="Helvetica,sans-Serif" font-size="10.00">math.h</text>
</a>
</g>
</g>
<!-- Node4&#45;&gt;Node5 -->
<g id="edge4_Node000004_Node000005" class="edge">
<title>Node4&#45;&gt;Node5</title>
<g id="a_edge4_Node000004_Node000005"><a xlink:title=" ">
<path fill="none" stroke="#63b8ff" d="M139.05,-54.75C134.49,-47.42 127.83,-36.73 122.21,-27.7"/>
<polygon fill="#63b8ff" stroke="#63b8ff" points="125.1,-25.73 116.85,-19.09 119.16,-29.43 125.1,-25.73"/>
</a>
</g>
</g>
<!-- Node6 -->
<g id="Node000006" class="node">
<title>Node6</title>
<g id="a_Node000006"><a xlink:title=" ">
<polygon fill="#e0e0e0" stroke="#999999" points="202,-19 155,-19 155,0 202,0 202,-19"/>
<text text-anchor="middle" x="178.5" y="-7" font-family="Helvetica,sans-Serif" font-size="10.00">float.h</text>
</a>
</g>
</g>
<!-- Node4&#45;&gt;Node6 -->
<g id="edge5_Node000004_Node000006" class="edge">
<title>Node4&#45;&gt;Node6</title>
<g id="a_edge5_Node000004_Node000006"><a xlink:title=" ">
<path fill="none" stroke="#63b8ff" d="M150.11,-54.75C154.82,-47.42 161.67,-36.73 167.47,-27.7"/>
<polygon fill="#63b8ff" stroke="#63b8ff" points="170.54,-29.4 172.99,-19.09 164.64,-25.62 170.54,-29.4"/>
</a>
</g>
</g>
</g>
</svg>
