<?xml version="1.0" encoding="UTF-8" standalone="no"?>
<!DOCTYPE svg PUBLIC "-//W3C//DTD SVG 1.1//EN"
 "http://www.w3.org/Graphics/SVG/1.1/DTD/svg11.dtd">
<!-- Generated by graphviz version 2.43.0 (0)
 -->
<!-- Title: src/GeoMath.h Pages: 1 -->
<!--zoomable 269 -->

<svg id="main" version="1.1" xmlns="http://www.w3.org/2000/svg" xmlns:xlink="http://www.w3.org/1999/xlink" xml:space="preserve" onload="init(evt)">
<style type="text/css"><![CDATA[
.node, .edge {opacity: 0.7;}
.node.selected, .edge.selected {opacity: 1;}
.edge:hover path { stroke: red; }
.edge:hover polygon { stroke: red; fill: red; }
]]></style>

<defs>
  <circle id="rim" cx="0" cy="0" r="7"/>
  <circle id="rim2" cx="0" cy="0" r="3.5"/>
  <g id="zoomPlus">
    <use xlink:href="#rim" fill="#404040"><set attributeName="fill" to="#808080" begin="zoomplus.mouseover" end="zoomplus.mouseout"/></use>
    <path d="M-4,0h8M0,-4v8" fill="none" stroke="white" stroke-width="1.5" pointer-events="none"/>
  </g>
  <g id="zoomMin">
    <use xlink:href="#rim" fill="#404040"><set attributeName="fill" to="#808080" begin="zoomminus.mouseover" end="zoomminus.mouseout"/></use>
    <path d="M-4,0h8" fill="none" stroke="white" stroke-width="1.5" pointer-events="none"/>
  </g>
  <g id="arrowUp" transform="translate(30 24)">
    <use xlink:href="#rim"/>
    <path pointer-events="none" fill="none" stroke="white" stroke-width="1.5" d="M0,-3.0v7 M-2.5,-0.5L0,-3.0L2.5,-0.5"/>
  </g>
  <g id="arrowRight" transform="rotate(90) translate(36 -43)">
    <use xlink:href="#rim"/>
    <path pointer-events="none" fill="none" stroke="white" stroke-width="1.5" d="M0,-3.0v7 M-2.5,-0.5L0,-3.0L2.5,-0.5"/>
  </g>
  <g id="arrowDown" transform="rotate(180) translate(-30 -48)">
    <use xlink:href="#rim"/>
    <path pointer-events="none" fill="none" stroke="white" stroke-width="1.5" d="M0,-3.0v7 M-2.5,-0.5L0,-3.0L2.5,-0.5"/>
  </g>
  <g id="arrowLeft" transform="rotate(270) translate(-36 17)">
    <use xlink:href="#rim"/>
    <path pointer-events="none" fill="none" stroke="white" stroke-width="1.5" d="M0,-3.0v7 M-2.5,-0.5L0,-3.0L2.5,-0.5"/>
  </g>
  <g id="resetDef">
    <use xlink:href="#rim2" fill="#404040"><set attributeName="fill" to="#808080" begin="reset.mouseover" end="reset.mouseout"/></use>
  </g>
</defs>
<script type="application/ecmascript">
var viewWidth = 909;
var viewHeight = 269;
var sectionId = 'dynsection-1';
</script>
<script type="application/ecmascript" xlink:href="svg.min.js"/>
<svg id="graph" class="graph">
<g id="viewport">
<title>src/GeoMath.h</title>
<!-- Node1 -->
<g id="Node000001" class="node">
<title>Node1</title>
<g id="a_Node000001"><a xlink:title=" ">
<polygon fill="#999999" stroke="#666666" points="566,-261 479,-261 479,-242 566,-242 566,-261"/>
<text text-anchor="middle" x="522.5" y="-249" font-family="Helvetica,sans-Serif" font-size="10.00">src/GeoMath.h</text>
</a>
</g>
</g>
<!-- Node2 -->
<g id="Node000002" class="node">
<title>Node2</title>
<g id="a_Node000002"><a xlink:href="CourseDetector_8h.html" target="_top" xlink:title=" ">
<polygon fill="white" stroke="#666666" points="123.5,-140 5.5,-140 5.5,-121 123.5,-121 123.5,-140"/>
<text text-anchor="middle" x="64.5" y="-128" font-family="Helvetica,sans-Serif" font-size="10.00">src/CourseDetector.h</text>
</a>
</g>
</g>
<!-- Node1&#45;&gt;Node2 -->
<g id="edge1_Node000001_Node000002" class="edge">
<title>Node1&#45;&gt;Node2</title>
<g id="a_edge1_Node000001_Node000002"><a xlink:title=" ">
<path fill="none" stroke="#63b8ff" d="M477.99,-239.6C405.46,-221.73 257.31,-184.81 132.5,-151 119.7,-147.53 105.59,-143.52 93.57,-140.04"/>
<polygon fill="#63b8ff" stroke="#63b8ff" points="477.17,-243 487.71,-241.99 478.84,-236.2 477.17,-243"/>
</a>
</g>
</g>
<!-- Node6 -->
<g id="Node000006" class="node">
<title>Node6</title>
<g id="a_Node000006"><a xlink:href="DovesLapTimer_8cpp.html" target="_top" xlink:title=" ">
<polygon fill="white" stroke="#666666" points="900.5,-140 770.5,-140 770.5,-121 900.5,-121 900.5,-140"/>
<text text-anchor="middle" x="835.5" y="-128" font-family="Helvetica,sans-Serif" font-size="10.00">src/DovesLapTimer.cpp</text>
</a>
</g>
</g>
<!-- Node1&#45;&gt;Node6 -->
<g id="edge5_Node000001_Node000006" class="edge">
<title>Node1&#45;&gt;Node6</title>
<g id="a_edge5_Node000001_Node000006"><a xlink:title=" ">
<path fill="none" stroke="#63b8ff" d="M554.49,-238.34C617.85,-214.25 757.86,-161.02 812.77,-140.14"/>
<polygon fill="#63b8ff" stroke="#63b8ff" points="553.11,-235.12 545.01,-241.94 555.6,-241.66 553.11,-235.12"/>
</a>
</g>
</g>
<!-- Node7 -->
<g id="Node000007" class="node">
<title>Node7</title>
<g id="a_Node000007"><a xlink:href="DovesLapTimer_8h.html" target="_top" xlink:title=" ">
<polygon fill="white" stroke="#666666" points="538,-206 419,-206 419,-187 538,-187 538,-206"/>
<text text-anchor="middle" x="478.5" y="-194" font-family="Helvetica,sans-Serif" font-size="10.00">src/DovesLapTimer.h</text>
</a>
</g>
</g>
<!-- Node1&#45;&gt;Node7 -->
<g id="edge6_Node000001_Node000007" class="edge">
<title>Node1&#45;&gt;Node7</title>
<g id="a_edge6_Node000001_Node000007"><a xlink:title=" ">
<path fill="none" stroke="#63b8ff" d="M508.77,-233.96C501.1,-224.72 491.87,-213.6 485.63,-206.09"/>
<polygon fill="#63b8ff" stroke="#63b8ff" points="506.15,-236.29 515.23,-241.75 511.54,-231.82 506.15,-236.29"/>
</a>
</g>
</g>
<!-- Node11 -->
<g id="Node000011" class="node">
<title>Node11</title>
<g id="a_Node000011"><a xlink:href="WaypointLapTimer_8h.html" target="_top" xlink:title=" ">
<polygon fill="white" stroke="#666666" points="752.5,-140 618.5,-140 618.5,-121 752.5,-121 752.5,-140"/>
<text text-anchor="middle" x="685.5" y="-128" font-family="Helvetica,sans-Serif" font-size="10.00">src/WaypointLapTimer.h</text>
</a>
</g>
</g>
<!-- Node1&#45;&gt;Node11 -->
<g id="edge16_Node000001_Node000011" class="edge">
<title>Node1&#45;&gt;Node11</title>
<g id="a_edge16_Node000001_Node000011"><a xlink:title=" ">
<path fill="none" stroke="#63b8ff" d="M542.52,-235.88C576.78,-210.87 645.64,-160.6 673.44,-140.3"/>
<polygon fill="#63b8ff" stroke="#63b8ff" points="540.24,-233.22 534.22,-241.94 544.36,-238.87 540.24,-233.22"/>
</a>
</g>
</g>
<!-- Node3 -->
<g id="Node000003" class="node">
<title>Node3</title>
<g id="a_Node000003"><a xlink:href="CourseDetector_8cpp.html" target="_top" xlink:title=" ">
<polygon fill="white" stroke="#666666" points="129,-74 0,-74 0,-55 129,-55 129,-74"/>
<text text-anchor="middle" x="64.5" y="-62" font-family="Helvetica,sans-Serif" font-size="10.00">src/CourseDetector.cpp</text>
</a>
</g>
</g>
<!-- Node2&#45;&gt;Node3 -->
<g id="edge2_Node000002_Node000003" class="edge">
<title>Node2&#45;&gt;Node3</title>
<g id="a_edge2_Node000002_Node000003"><a xlink:title=" ">
<path fill="none" stroke="#63b8ff" d="M64.5,-110.58C64.5,-98.63 64.5,-83.72 64.5,-74.41"/>
<polygon fill="#63b8ff" stroke="#63b8ff" points="61,-110.87 64.5,-120.87 68,-110.87 61,-110.87"/>
</a>
</g>
</g>
<!-- Node4 -->
<g id="Node000004" class="node">
<title>Node4</title>
<g id="a_Node000004"><a xlink:href="CourseManager_8h.html" target="_top" xlink:title=" ">
<polygon fill="white" stroke="#666666" points="498,-74 379,-74 379,-55 498,-55 498,-74"/>
<text text-anchor="middle" x="438.5" y="-62" font-family="Helvetica,sans-Serif" font-size="10.00">src/CourseManager.h</text>
</a>
</g>
</g>
<!-- Node2&#45;&gt;Node4 -->
<g id="edge3_Node000002_Node000004" class="edge">
<title>Node2&#45;&gt;Node4</title>
<g id="a_edge3_Node000002_Node000004"><a xlink:title=" ">
<path fill="none" stroke="#63b8ff" d="M100.88,-118.09C111.05,-115.17 122.14,-112.23 132.5,-110 217.26,-91.77 316.86,-78.83 378.84,-71.76"/>
<polygon fill="#63b8ff" stroke="#63b8ff" points="99.7,-114.79 91.1,-120.97 101.68,-121.5 99.7,-114.79"/>
</a>
</g>
</g>
<!-- Node5 -->
<g id="Node000005" class="node">
<title>Node5</title>
<g id="a_Node000005"><a xlink:href="CourseManager_8cpp.html" target="_top" xlink:title=" ">
<polygon fill="white" stroke="#666666" points="503.5,-19 373.5,-19 373.5,0 503.5,0 503.5,-19"/>
<text text-anchor="middle" x="438.5" y="-7" font-family="Helvetica,sans-Serif" font-size="10.00">src/CourseManager.cpp</text>
</a>
</g>
</g>
<!-- Node4&#45;&gt;Node5 -->
<g id="edge4_Node000004_Node000005" class="edge">
<title>Node4&#45;&gt;Node5</title>
<g id="a_edge4_Node000004_Node000005"><a xlink:title=" ">
<path fill="none" stroke="#63b8ff" d="M438.5,-44.66C438.5,-35.93 438.5,-25.99 438.5,-19.09"/>
<polygon fill="#63b8ff" stroke="#63b8ff" points="435,-44.75 438.5,-54.75 442,-44.75 435,-44.75"/>
</a>
</g>
</g>
<!-- Node7&#45;&gt;Node2 -->
<g id="edge10_Node000007_Node000002" class="edge">
<title>Node7&#45;&gt;Node2</title>
<g id="a_edge10_Node000007_Node000002"><a xlink:title=" ">
<path fill="none" stroke="#63b8ff" d="M408.91,-189.67C338.67,-183.06 227.33,-170.58 132.5,-151 118.55,-148.12 103.28,-143.85 90.75,-140.03"/>
<polygon fill="#63b8ff" stroke="#63b8ff" points="408.69,-193.17 418.97,-190.6 409.33,-186.2 408.69,-193.17"/>
</a>
</g>
</g>
<!-- Node7&#45;&gt;Node4 -->
<g id="edge11_Node000007_Node000004" class="edge">
<title>Node7&#45;&gt;Node4</title>
<g id="a_edge11_Node000007_Node000004"><a xlink:title=" ">
<path fill="none" stroke="#63b8ff" d="M469.04,-177.8C465.04,-169.79 460.61,-160.09 457.5,-151 448.14,-123.67 442.21,-89.81 439.77,-74.17"/>
<polygon fill="#63b8ff" stroke="#63b8ff" points="466.02,-179.6 473.72,-186.88 472.24,-176.38 466.02,-179.6"/>
</a>
</g>
</g>
<!-- Node7&#45;&gt;Node6 -->
<g id="edge12_Node000007_Node000006" class="edge">
<title>Node7&#45;&gt;Node6</title>
<g id="a_edge12_Node000007_Node000006"><a xlink:title=" ">
<path fill="none" stroke="#63b8ff" d="M548.24,-186.55C605.74,-178.68 689.29,-166.15 761.5,-151 776.19,-147.92 792.33,-143.76 805.78,-140.07"/>
<polygon fill="#63b8ff" stroke="#63b8ff" points="547.61,-183.1 538.17,-187.91 548.55,-190.04 547.61,-183.1"/>
</a>
</g>
</g>
<!-- Node8 -->
<g id="Node000008" class="node">
<title>Node8</title>
<g id="a_Node000008"><a xlink:href="basic__oled__example_8ino.html" target="_top" xlink:title=" ">
<polygon fill="white" stroke="#666666" points="261,-151 142,-151 142,-110 261,-110 261,-151"/>
<text text-anchor="start" x="150" y="-139" font-family="Helvetica,sans-Serif" font-size="10.00">examples/basic_oled</text>
<text text-anchor="start" x="150" y="-128" font-family="Helvetica,sans-Serif" font-size="10.00">_example/basic_oled</text>
<text text-anchor="middle" x="201.5" y="-117" font-family="Helvetica,sans-Serif" font-size="10.00">_example.ino</text>
</a>
</g>
</g>
<!-- Node7&#45;&gt;Node8 -->
<g id="edge7_Node000007_Node000008" class="edge">
<title>Node7&#45;&gt;Node8</title>
<g id="a_edge7_Node000007_Node000008"><a xlink:title=" ">
<path fill="none" stroke="#63b8ff" d="M424.03,-184.98C381.72,-176.55 321.65,-164.01 269.5,-151 266.76,-150.32 263.96,-149.6 261.14,-148.86"/>
<polygon fill="#63b8ff" stroke="#63b8ff" points="423.36,-188.42 433.85,-186.93 424.73,-181.55 423.36,-188.42"/>
</a>
</g>
</g>
<!-- Node9 -->
<g id="Node000009" class="node">
<title>Node9</title>
<g id="a_Node000009"><a xlink:href="real__track__data__debug_8ino.html" target="_top" xlink:title=" ">
<polygon fill="white" stroke="#666666" points="410,-151 279,-151 279,-110 410,-110 410,-151"/>
<text text-anchor="start" x="287" y="-139" font-family="Helvetica,sans-Serif" font-size="10.00">examples/real_track</text>
<text text-anchor="start" x="287" y="-128" font-family="Helvetica,sans-Serif" font-size="10.00">_data_debug/real_track</text>
<text text-anchor="middle" x="344.5" y="-117" font-family="Helvetica,sans-Serif" font-size="10.00">_data_debug.ino</text>
</a>
</g>
</g>
<!-- Node7&#45;&gt;Node9 -->
<g id="edge8_Node000007_Node000009" class="edge">
<title>Node7&#45;&gt;Node9</title>
<g id="a_edge8_Node000007_Node000009"><a xlink:title=" ">
<path fill="none" stroke="#63b8ff" d="M451.19,-182.45C432.25,-173.41 406.7,-161.21 385.35,-151.01"/>
<polygon fill="#63b8ff" stroke="#63b8ff" points="449.9,-185.72 460.43,-186.87 452.91,-179.4 449.9,-185.72"/>
</a>
</g>
</g>
<!-- Node10 -->
<g id="Node000010" class="node">
<title>Node10</title>
<g id="a_Node000010"><a xlink:href="sector__timing__example_8ino.html" target="_top" xlink:title=" ">
<polygon fill="white" stroke="#666666" points="600.5,-151 466.5,-151 466.5,-110 600.5,-110 600.5,-151"/>
<text text-anchor="start" x="474.5" y="-139" font-family="Helvetica,sans-Serif" font-size="10.00">examples/sector_timing</text>
<text text-anchor="start" x="474.5" y="-128" font-family="Helvetica,sans-Serif" font-size="10.00">_example/sector_timing</text>
<text text-anchor="middle" x="533.5" y="-117" font-family="Helvetica,sans-Serif" font-size="10.00">_example.ino</text>
</a>
</g>
</g>
<!-- Node7&#45;&gt;Node10 -->
<g id="edge9_Node000007_Node000010" class="edge">
<title>Node7&#45;&gt;Node10</title>
<g id="a_edge9_Node000007_Node000010"><a xlink:title=" ">
<path fill="none" stroke="#63b8ff" d="M492.6,-179.09C499.96,-170.53 509.02,-159.99 516.73,-151.01"/>
<polygon fill="#63b8ff" stroke="#63b8ff" points="489.78,-177 485.92,-186.87 495.09,-181.57 489.78,-177"/>
</a>
</g>
</g>
<!-- Node7&#45;&gt;Node11 -->
<g id="edge13_Node000007_Node000011" class="edge">
<title>Node7&#45;&gt;Node11</title>
<g id="a_edge13_Node000007_Node000011"><a xlink:title=" ">
<path fill="none" stroke="#63b8ff" d="M516.01,-183.9C556.83,-171.28 621.15,-151.39 657.7,-140.1"/>
<polygon fill="#63b8ff" stroke="#63b8ff" points="514.94,-180.57 506.42,-186.87 517,-187.26 514.94,-180.57"/>
</a>
</g>
</g>
<!-- Node11&#45;&gt;Node4 -->
<g id="edge14_Node000011_Node000004" class="edge">
<title>Node11&#45;&gt;Node4</title>
<g id="a_edge14_Node000011_Node000004"><a xlink:title=" ">
<path fill="none" stroke="#63b8ff" d="M642.52,-118.36C593.8,-105.74 515.44,-85.44 471.36,-74.01"/>
<polygon fill="#63b8ff" stroke="#63b8ff" points="641.89,-121.81 652.44,-120.94 643.64,-115.04 641.89,-121.81"/>
</a>
</g>
</g>
<!-- Node12 -->
<g id="Node000012" class="node">
<title>Node12</title>
<g id="a_Node000012"><a xlink:href="WaypointLapTimer_8cpp.html" target="_top" xlink:title=" ">
<polygon fill="white" stroke="#666666" points="758,-74 613,-74 613,-55 758,-55 758,-74"/>
<text text-anchor="middle" x="685.5" y="-62" font-family="Helvetica,sans-Serif" font-size="10.00">src/WaypointLapTimer.cpp</text>
</a>
</g>
</g>
<!-- Node11&#45;&gt;Node12 -->
<g id="edge15_Node000011_Node000012" class="edge">
<title>Node11&#45;&gt;Node12</title>
<g id="a_edge15_Node000011_Node000012"><a xlink:title=" ">
<path fill="none" stroke="#63b8ff" d="M685.5,-110.58C685.5,-98.63 685.5,-83.72 685.5,-74.41"/>
<polygon fill="#63b8ff" stroke="#63b8ff" points="682,-110.87 685.5,-120.87 689,-110.87 682,-110.87"/>
</a>
</g>
</g>
</g>
</svg>

<g id="navigator" transform="translate(0 0)" fill="#404254">
  <rect fill="#f2f5e9" fill-opacity="0.5" stroke="#606060" stroke-width=".5" x="0" y="0" width="60" height="60"/>
  <use id="zoomplus" xlink:href="#zoomPlus" x="17" y="9" onmousedown="handleZoom(evt,'in')"/>
  <use id="zoomminus" xlink:href="#zoomMin" x="42" y="9" onmousedown="handleZoom(evt,'out')"/>
  <use id="reset" xlink:href="#resetDef" x="30" y="36" onmousedown="handleReset()"/>
   <use id="arrowup" xlink:href="#arrowUp" x="0" y="0" onmousedown="handlePan(0,-1)"/>
  <use id="arrowright" xlink:href="#arrowRight" x="0" y="0" onmousedown="handlePan(1,0)"/>
  <use id="arrowdown" xlink:href="#arrowDown" x="0" y="0" onmousedown="handlePan(0,1)"/>
  <use id="arrowleft" xlink:href="#arrowLeft" x="0" y="0" onmousedown="handlePan(-1,0)"/>
</g>
<svg viewBox="0 0 15 15" width="100%" height="30px" preserveAspectRatio="xMaxYMin meet">
 <g id="arrow_out" transform="scale(0.3 0.3)">
  <a xlink:href="GeoMath_8h__dep__incl_org.svg" target="_base">
   <rect id="button" ry="5" rx="5" y="6" x="6" height="38" width="38"
        fill="#f2f5e9" fill-opacity="0.5" stroke="#606060" stroke-width="1.0"/>
   <path id="arrow"
     d="M 11.500037,31.436501 C 11.940474,20.09759 22.043105,11.32322 32.158766,21.979434 L 37.068811,17.246167 C 37.068811,17.246167 37.088388,32 37.088388,32 L 22.160133,31.978069 C 22.160133,31.978069 26.997745,27.140456 26.997745,27.140456 C 18.528582,18.264221 13.291696,25.230495 11.500037,31.436501 z"
     style="fill:#404040;"/>
  </a>
 </g>
</svg>

<style type='text/css'>
<![CDATA[
[data-mouse-over-selected='false'] { opacity: 0.7; }
[data-mouse-over-selected='true']  { opacity: 1.0; }
]]>
</style>
<script type="application/ecmascript"><![CDATA[
document.addEventListener('DOMContentLoaded', (event) => {
  highlightEdges();
  highlightAdjacentNodes();
});
]]></script>
</svg>
