<?xml version="1.0" encoding="UTF-8" standalone="no"?>
<!DOCTYPE svg PUBLIC "-//W3C//DTD SVG 1.1//EN"
 "http://www.w3.org/Graphics/SVG/1.1/DTD/svg11.dtd">
<!-- Generated by graphviz version 2.43.0 (0)
 -->
<!-- Title: CourseTimerEntry Pages: 1 -->
<svg width="185pt" height="333pt"
 viewBox="0.00 0.00 185.00 333.00" xmlns="http://www.w3.org/2000/svg" xmlns:xlink="http://www.w3.org/1999/xlink">
<g id="graph0" class="graph" transform="scale(1 1) rotate(0) translate(4 329)">
<title>CourseTimerEntry</title>
<!-- Node1 -->
<g id="Node000001" class="node">
<title>Node1</title>
<g id="a_Node000001"><a xlink:title=" ">
<polygon fill="#999999" stroke="transparent" points="137.5,-79 39.5,-79 39.5,0 137.5,0 137.5,-79"/>
<text text-anchor="start" x="44.5" y="-66.5" font-family="Helvetica,sans-Serif" font-size="10.00">CourseTimerEntry</text>
<text text-anchor="start" x="52.5" y="-51.5" font-family="Helvetica,sans-Serif" font-size="10.00">+</text>
<text text-anchor="start" x="74.5" y="-51.5" font-family="Helvetica,sans-Serif" font-size="10.00">active</text>
<text text-anchor="start" x="52.5" y="-36.5" font-family="Helvetica,sans-Serif" font-size="10.00">+</text>
<text text-anchor="start" x="74.5" y="-36.5" font-family="Helvetica,sans-Serif" font-size="10.00">lengthFt</text>
<text text-anchor="start" x="52.5" y="-21.5" font-family="Helvetica,sans-Serif" font-size="10.00">+</text>
<text text-anchor="start" x="74.5" y="-21.5" font-family="Helvetica,sans-Serif" font-size="10.00">name</text>
<text text-anchor="start" x="86.5" y="-6.5" font-family="Helvetica,sans-Serif" font-size="10.00"> </text>
<polygon fill="#666666" stroke="#666666" points="39.5,-61.5 39.5,-61.5 137.5,-61.5 137.5,-61.5 39.5,-61.5"/>
<polygon fill="#666666" stroke="#666666" points="39.5,-16.5 39.5,-16.5 72.5,-16.5 72.5,-16.5 39.5,-16.5"/>
<polygon fill="#666666" stroke="#666666" points="72.5,-16.5 72.5,-16.5 137.5,-16.5 137.5,-16.5 72.5,-16.5"/>
<polygon fill="none" stroke="#666666" points="39.5,0 39.5,-79 137.5,-79 137.5,0 39.5,0"/>
</a>
</g>
</g>
<!-- Node2 -->
<g id="Node000002" class="node">
<title>Node2</title>
<g id="a_Node000002"><a xlink:href="classDovesLapTimer.html" target="_top" xlink:title=" ">
<polygon fill="white" stroke="transparent" points="177,-325 0,-325 0,-126 177,-126 177,-325"/>
<text text-anchor="start" x="50.5" y="-312.5" font-family="Helvetica,sans-Serif" font-size="10.00">DovesLapTimer</text>
<text text-anchor="start" x="87" y="-297.5" font-family="Helvetica,sans-Serif" font-size="10.00"> </text>
<text text-anchor="start" x="4.5" y="-282.5" font-family="Helvetica,sans-Serif" font-size="10.00">+</text>
<text text-anchor="start" x="17.5" y="-282.5" font-family="Helvetica,sans-Serif" font-size="10.00">areSectorLinesConfigured()</text>
<text text-anchor="start" x="4.5" y="-267.5" font-family="Helvetica,sans-Serif" font-size="10.00">+</text>
<text text-anchor="start" x="17.5" y="-267.5" font-family="Helvetica,sans-Serif" font-size="10.00">DovesLapTimer()</text>
<text text-anchor="start" x="4.5" y="-252.5" font-family="Helvetica,sans-Serif" font-size="10.00">+</text>
<text text-anchor="start" x="17.5" y="-252.5" font-family="Helvetica,sans-Serif" font-size="10.00">forceCatmullRomInterpolation()</text>
<text text-anchor="start" x="4.5" y="-237.5" font-family="Helvetica,sans-Serif" font-size="10.00">+</text>
<text text-anchor="start" x="17.5" y="-237.5" font-family="Helvetica,sans-Serif" font-size="10.00">forceLinearInterpolation()</text>
<text text-anchor="start" x="4.5" y="-222.5" font-family="Helvetica,sans-Serif" font-size="10.00">+</text>
<text text-anchor="start" x="17.5" y="-222.5" font-family="Helvetica,sans-Serif" font-size="10.00">getBestLapDistance()</text>
<text text-anchor="start" x="4.5" y="-207.5" font-family="Helvetica,sans-Serif" font-size="10.00">+</text>
<text text-anchor="start" x="17.5" y="-207.5" font-family="Helvetica,sans-Serif" font-size="10.00">getBestLapNumber()</text>
<text text-anchor="start" x="4.5" y="-192.5" font-family="Helvetica,sans-Serif" font-size="10.00">+</text>
<text text-anchor="start" x="17.5" y="-192.5" font-family="Helvetica,sans-Serif" font-size="10.00">getBestLapTime()</text>
<text text-anchor="start" x="4.5" y="-177.5" font-family="Helvetica,sans-Serif" font-size="10.00">+</text>
<text text-anchor="start" x="17.5" y="-177.5" font-family="Helvetica,sans-Serif" font-size="10.00">getBestSector1LapNumber()</text>
<text text-anchor="start" x="4.5" y="-162.5" font-family="Helvetica,sans-Serif" font-size="10.00">+</text>
<text text-anchor="start" x="17.5" y="-162.5" font-family="Helvetica,sans-Serif" font-size="10.00">getBestSector1Time()</text>
<text text-anchor="start" x="4.5" y="-147.5" font-family="Helvetica,sans-Serif" font-size="10.00">+</text>
<text text-anchor="start" x="17.5" y="-147.5" font-family="Helvetica,sans-Serif" font-size="10.00">getBestSector2LapNumber()</text>
<text text-anchor="start" x="17.5" y="-132.5" font-family="Helvetica,sans-Serif" font-size="10.00">and 37 more...</text>
<polygon fill="#666666" stroke="#666666" points="0.5,-307.5 0.5,-307.5 177.5,-307.5 177.5,-307.5 0.5,-307.5"/>
<polygon fill="#666666" stroke="#666666" points="0.5,-292.5 0.5,-292.5 177.5,-292.5 177.5,-292.5 0.5,-292.5"/>
<polygon fill="none" stroke="#666666" points="0,-126 0,-325 177,-325 177,-126 0,-126"/>
</a>
</g>
</g>
<!-- Node2&#45;&gt;Node1 -->
<g id="edge1_Node000001_Node000002" class="edge">
<title>Node2&#45;&gt;Node1</title>
<g id="a_edge1_Node000001_Node000002"><a xlink:title=" ">
<path fill="none" stroke="#63b8ff" d="M88.5,-125.77C88.5,-113.88 88.5,-102.14 88.5,-91.36"/>
<polygon fill="none" stroke="#63b8ff" points="88.5,-91.18 84.5,-85.18 88.5,-79.18 92.5,-85.18 88.5,-91.18"/>
</a>
</g>
<text text-anchor="middle" x="107.5" y="-100" font-family="Helvetica,sans-Serif" font-size="10.00" fill="grey"> +timer</text>
</g>
</g>
</svg>
