<?xml version="1.0" encoding="UTF-8" standalone="no"?>
<!DOCTYPE svg PUBLIC "-//W3C//DTD SVG 1.1//EN"
 "http://www.w3.org/Graphics/SVG/1.1/DTD/svg11.dtd">
<!-- Generated by graphviz version 2.43.0 (0)
 -->
<!-- Title: TrackConfig Pages: 1 -->
<svg width="100pt" height="333pt"
 viewBox="0.00 0.00 100.00 333.00" xmlns="http://www.w3.org/2000/svg" xmlns:xlink="http://www.w3.org/1999/xlink">

<svg id="main" version="1.1" xmlns="http://www.w3.org/2000/svg" xmlns:xlink="http://www.w3.org/1999/xlink" xml:space="preserve" onload="init(evt)">
<style type="text/css"><![CDATA[
.node, .edge {opacity: 0.7;}
.node.selected, .edge.selected {opacity: 1;}
.edge:hover path { stroke: red; }
.edge:hover polygon { stroke: red; fill: red; }
]]></style>
<script type="application/ecmascript" xlink:href="svg.min.js"/>
<svg id="graph" class="graph">
<g id="graph0" class="graph" transform="scale(1 1) rotate(0) translate(4 329)">
<title>TrackConfig</title>
<!-- Node1 -->
<g id="Node000001" class="node">
<title>Node1</title>
<g id="a_Node000001"><a xlink:title=" ">
<polygon fill="#999999" stroke="transparent" points="84,-79 2,-79 2,0 84,0 84,-79"/>
<text text-anchor="start" x="14.5" y="-66.5" font-family="Helvetica,sans-Serif" font-size="10.00">TrackConfig</text>
<text text-anchor="start" x="6" y="-51.5" font-family="Helvetica,sans-Serif" font-size="10.00">+</text>
<text text-anchor="start" x="19" y="-51.5" font-family="Helvetica,sans-Serif" font-size="10.00">courseCount</text>
<text text-anchor="start" x="6" y="-36.5" font-family="Helvetica,sans-Serif" font-size="10.00">+</text>
<text text-anchor="start" x="19" y="-36.5" font-family="Helvetica,sans-Serif" font-size="10.00">longName</text>
<text text-anchor="start" x="6" y="-21.5" font-family="Helvetica,sans-Serif" font-size="10.00">+</text>
<text text-anchor="start" x="19" y="-21.5" font-family="Helvetica,sans-Serif" font-size="10.00">shortName</text>
<text text-anchor="start" x="41" y="-6.5" font-family="Helvetica,sans-Serif" font-size="10.00"> </text>
<polygon fill="#666666" stroke="#666666" points="2,-61.5 2,-61.5 84,-61.5 84,-61.5 2,-61.5"/>
<polygon fill="#666666" stroke="#666666" points="2,-16.5 2,-16.5 17,-16.5 17,-16.5 2,-16.5"/>
<polygon fill="#666666" stroke="#666666" points="17,-16.5 17,-16.5 84,-16.5 84,-16.5 17,-16.5"/>
<polygon fill="none" stroke="#666666" points="2,0 2,-79 84,-79 84,0 2,0"/>
</a>
</g>
</g>
<!-- Node2 -->
<g id="Node000002" class="node">
<title>Node2</title>
<g id="a_Node000002"><a xlink:href="structCourseConfig.html" target="_top" xlink:title=" ">
<polygon fill="white" stroke="transparent" points="86,-325 0,-325 0,-126 86,-126 86,-325"/>
<text text-anchor="start" x="10.5" y="-312.5" font-family="Helvetica,sans-Serif" font-size="10.00">CourseConfig</text>
<text text-anchor="start" x="4" y="-297.5" font-family="Helvetica,sans-Serif" font-size="10.00">+</text>
<text text-anchor="start" x="17" y="-297.5" font-family="Helvetica,sans-Serif" font-size="10.00">hasSector2</text>
<text text-anchor="start" x="4" y="-282.5" font-family="Helvetica,sans-Serif" font-size="10.00">+</text>
<text text-anchor="start" x="17" y="-282.5" font-family="Helvetica,sans-Serif" font-size="10.00">hasSector3</text>
<text text-anchor="start" x="4" y="-267.5" font-family="Helvetica,sans-Serif" font-size="10.00">+</text>
<text text-anchor="start" x="17" y="-267.5" font-family="Helvetica,sans-Serif" font-size="10.00">lengthFt</text>
<text text-anchor="start" x="4" y="-252.5" font-family="Helvetica,sans-Serif" font-size="10.00">+</text>
<text text-anchor="start" x="17" y="-252.5" font-family="Helvetica,sans-Serif" font-size="10.00">name</text>
<text text-anchor="start" x="4" y="-237.5" font-family="Helvetica,sans-Serif" font-size="10.00">+</text>
<text text-anchor="start" x="17" y="-237.5" font-family="Helvetica,sans-Serif" font-size="10.00">sector2ALat</text>
<text text-anchor="start" x="4" y="-222.5" font-family="Helvetica,sans-Serif" font-size="10.00">+</text>
<text text-anchor="start" x="17" y="-222.5" font-family="Helvetica,sans-Serif" font-size="10.00">sector2ALng</text>
<text text-anchor="start" x="4" y="-207.5" font-family="Helvetica,sans-Serif" font-size="10.00">+</text>
<text text-anchor="start" x="17" y="-207.5" font-family="Helvetica,sans-Serif" font-size="10.00">sector2BLat</text>
<text text-anchor="start" x="4" y="-192.5" font-family="Helvetica,sans-Serif" font-size="10.00">+</text>
<text text-anchor="start" x="17" y="-192.5" font-family="Helvetica,sans-Serif" font-size="10.00">sector2BLng</text>
<text text-anchor="start" x="4" y="-177.5" font-family="Helvetica,sans-Serif" font-size="10.00">+</text>
<text text-anchor="start" x="17" y="-177.5" font-family="Helvetica,sans-Serif" font-size="10.00">sector3ALat</text>
<text text-anchor="start" x="4" y="-162.5" font-family="Helvetica,sans-Serif" font-size="10.00">+</text>
<text text-anchor="start" x="17" y="-162.5" font-family="Helvetica,sans-Serif" font-size="10.00">sector3ALng</text>
<text text-anchor="start" x="17" y="-147.5" font-family="Helvetica,sans-Serif" font-size="10.00">and 6 more...</text>
<text text-anchor="start" x="41" y="-132.5" font-family="Helvetica,sans-Serif" font-size="10.00"> </text>
<polygon fill="#666666" stroke="#666666" points="0,-307.5 0,-307.5 86,-307.5 86,-307.5 0,-307.5"/>
<polygon fill="#666666" stroke="#666666" points="0,-142.5 0,-142.5 15,-142.5 15,-142.5 0,-142.5"/>
<polygon fill="#666666" stroke="#666666" points="15,-142.5 15,-142.5 86,-142.5 86,-142.5 15,-142.5"/>
<polygon fill="none" stroke="#666666" points="0,-126 0,-325 86,-325 86,-126 0,-126"/>
</a>
</g>
</g>
<!-- Node2&#45;&gt;Node1 -->
<g id="edge1_Node000001_Node000002" class="edge">
<title>Node2&#45;&gt;Node1</title>
<g id="a_edge1_Node000001_Node000002"><a xlink:title=" ">
<path fill="none" stroke="#63b8ff" d="M43,-125.77C43,-113.88 43,-102.14 43,-91.36"/>
<polygon fill="none" stroke="#63b8ff" points="43,-91.18 39,-85.18 43,-79.18 47,-85.18 43,-91.18"/>
</a>
</g>
<text text-anchor="middle" x="67.5" y="-100" font-family="Helvetica,sans-Serif" font-size="10.00" fill="grey"> +courses</text>
</g>
</g>
</svg>
</svg>

<style type='text/css'>
<![CDATA[
[data-mouse-over-selected='false'] { opacity: 0.7; }
[data-mouse-over-selected='true']  { opacity: 1.0; }
]]>
</style>
<script type="application/ecmascript"><![CDATA[
document.addEventListener('DOMContentLoaded', (event) => {
  highlightEdges();
  highlightAdjacentNodes();
});
]]></script>
</svg>
